<svg width="58" height="36" viewBox="0 0 58 36" fill="none" xmlns="http://www.w3.org/2000/svg">
<g id="Sayer Logo Mini">
<path id="Outline" fill-rule="evenodd" clip-rule="evenodd" d="M57.6001 2.47268e-05C57.303 2.47268e-05 57.0672 1.56607e-05 56.8801 0L4.32 2.47268e-05C1.44 2.47268e-05 0 1.44003 0 4.32003V31.6801C2.82308e-06 34.5601 1.44 36.0001 4.32001 36.0001L43.2001 36.0001C43.2001 36.0001 43.2001 35.2801 50.4001 26.6401C54.0024 22.3173 55.8024 15.6515 56.7018 10.0693C57.0567 7.86642 57.2714 5.83225 57.4013 4.17744C57.4877 3.07635 57.5365 2.14319 57.5642 1.44003C57.5657 1.39988 57.5672 1.36049 57.5687 1.32185C57.6001 0.480397 57.6001 2.47268e-05 57.6001 2.47268e-05ZM56.0389 3.03976C55.5811 3.50213 55.0349 4.02004 54.3854 4.59087C51.3615 7.24817 46.09 11.0592 37.0522 15.7588C28.1808 20.372 24.5404 25.4681 23.0836 29.3245C22.3522 31.2605 22.1618 32.9077 22.1513 34.0604C22.1496 34.2391 22.1523 34.4059 22.158 34.5601H28.241C28.264 34.4318 28.2904 34.296 28.3205 34.153C28.5573 33.0282 29.0272 31.4592 29.9594 29.6415C31.8277 25.9982 35.5327 21.3954 42.8531 17.3692C49.9328 13.4753 53.4278 9.07816 55.1594 5.70148C55.4943 5.04839 55.764 4.43198 55.9813 3.863C56.003 3.57581 56.0221 3.30099 56.0389 3.03976ZM55.5625 7.90987C53.4866 11.2552 49.8621 15.1576 43.547 18.6309C36.4674 22.5247 32.9723 26.9219 31.2407 30.2986C30.3729 31.9909 29.9428 33.4369 29.7296 34.4496C29.7217 34.4871 29.7141 34.5239 29.7069 34.5601L35.9693 34.5601C36.0374 34.4421 36.1112 34.3158 36.1906 34.1818C36.7404 33.254 37.5627 31.9523 38.6578 30.4466C40.8459 27.4379 44.1342 23.5995 48.5281 20.304C52.0595 17.6555 54.1107 13.5886 55.2957 9.74287C55.3958 9.11607 55.4843 8.50334 55.5625 7.90987ZM53.7528 16.6559C52.612 18.4511 51.183 20.1129 49.3921 21.4561C45.1459 24.6406 41.9542 28.3622 39.8223 31.2935C38.8917 32.5731 38.1652 33.6993 37.6429 34.5601H42.354C42.4987 34.337 42.6856 34.0628 42.9283 33.7231C43.8594 32.4196 45.6861 30.0474 49.2938 25.7182C51.2999 23.311 52.7339 20.0648 53.7528 16.6559ZM20.7171 34.5601C20.7119 34.3996 20.7096 34.2284 20.7113 34.0472C20.7232 32.7474 20.9379 30.9297 21.7365 28.8156C23.3396 24.572 27.2593 19.2281 36.3879 14.4812C45.3501 9.82088 50.5186 6.07189 53.4348 3.50919C54.3595 2.69655 55.057 2.00389 55.5767 1.44003H4.32C3.10197 1.44003 2.45294 1.74356 2.09824 2.09826C1.74354 2.45296 1.44 3.102 1.44 4.32003V31.6801C1.44 32.8981 1.74354 33.5471 2.09824 33.9018C2.45293 34.2565 3.10197 34.5601 4.32001 34.5601H20.7171Z" fill="#232628"/>
<path id="Blue" fill-rule="evenodd" clip-rule="evenodd" d="M20.717 34.5601C20.7119 34.3996 20.7096 34.2285 20.7113 34.0473C20.7232 32.7475 20.9378 30.9297 21.7364 28.8157C23.3396 24.572 27.2592 19.2282 36.3878 14.4813C45.3501 9.82092 50.5186 6.07193 53.4347 3.50923C54.3595 2.69658 55.0569 2.00392 55.5766 1.44006H4.31994C3.10191 1.44006 2.45288 1.7436 2.09818 2.0983C1.74347 2.453 1.43994 3.10203 1.43994 4.32007V31.6801C1.43994 32.8982 1.74348 33.5472 2.09818 33.9019C2.45287 34.2566 3.10191 34.5601 4.31995 34.5601H20.717Z" fill="#1A8CCB"/>
<path id="Green" fill-rule="evenodd" clip-rule="evenodd" d="M56.039 3.03967C55.5812 3.50205 55.035 4.01995 54.3855 4.59079C51.3616 7.24809 46.0901 11.0591 37.0523 15.7588C28.1809 20.3719 24.5405 25.468 23.0837 29.3244C22.3523 31.2604 22.1619 32.9076 22.1514 34.0603C22.1497 34.239 22.1524 34.4058 22.1581 34.56H28.2411C28.2641 34.4318 28.2905 34.2959 28.3206 34.1529C28.5574 33.0282 29.0273 31.4591 29.9595 29.6414C31.8279 25.9981 35.5329 21.3953 42.8532 17.3691C49.9329 13.4753 53.4279 9.07808 55.1595 5.7014C55.4944 5.04831 55.7641 4.4319 55.9814 3.86292C56.0031 3.57573 56.0222 3.30091 56.039 3.03967Z" fill="#7FB627"/>
<path id="Yellow" fill-rule="evenodd" clip-rule="evenodd" d="M55.5624 7.90979C53.4865 11.2551 49.862 15.1576 43.547 18.6308C36.4673 22.5247 32.9723 26.9219 31.2406 30.2985C30.3728 31.9908 29.9427 33.4368 29.7295 34.4496C29.7217 34.487 29.7141 34.5238 29.7068 34.56L35.9693 34.56C36.0374 34.442 36.1111 34.3157 36.1906 34.1817C36.7404 33.2539 37.5626 31.9522 38.6577 30.4465C40.8458 27.4378 44.1341 23.5994 48.528 20.304C52.0594 17.6554 54.1106 13.5886 55.2957 9.74279C55.3957 9.11599 55.4842 8.50326 55.5624 7.90979Z" fill="#FAC81B"/>
<path id="Orange" fill-rule="evenodd" clip-rule="evenodd" d="M53.7527 16.6556C52.6119 18.4508 51.1829 20.1126 49.392 21.4558C45.1459 24.6404 41.9542 28.362 39.8223 31.2933C38.8917 32.5729 38.1651 33.699 37.6428 34.5598H42.354C42.4987 34.3367 42.6856 34.0625 42.9282 33.7228C43.8593 32.4193 45.6861 30.0472 49.2938 25.7179C51.2998 23.3107 52.7339 20.0645 53.7527 16.6556Z" fill="#EE7C09"/>
</g>
</svg>
